<?xml version="1.0" encoding="iso-8859-1"?>
<!-- Generator: Adobe Illustrator 24.1.2, SVG Export Plug-In . SVG Version: 6.00 Build 0)  -->
<svg version="1.1" id="&#xB808;&#xC774;&#xC5B4;_1" xmlns="http://www.w3.org/2000/svg" xmlns:xlink="http://www.w3.org/1999/xlink"
	 x="0px" y="0px" viewBox="0 0 17 17" style="enable-background:new 0 0 17 17;" xml:space="preserve">
<g>
	<g>
		<path d="M7.404,2.404c1.336,0,2.591,0.52,3.536,1.464c1.949,1.95,1.949,5.122,0,7.071c-0.944,0.944-2.2,1.464-3.536,1.464
			c-1.336,0-2.591-0.52-3.536-1.464c-1.95-1.95-1.95-5.122,0-7.071C4.813,2.924,6.068,2.404,7.404,2.404 M7.404,0.404
			c-1.791,0-3.583,0.683-4.95,2.05c-2.734,2.734-2.734,7.166,0,9.899c1.367,1.367,3.158,2.05,4.95,2.05s3.583-0.683,4.95-2.05
			c2.734-2.734,2.734-7.166,0-9.899C10.987,1.087,9.195,0.404,7.404,0.404L7.404,0.404z"/>
	</g>
	<g>
		<path d="M12.354,12.354l2.828,2.828L12.354,12.354 M12.354,10.939l-1.414,1.414l4.243,4.243l1.414-1.414L12.354,10.939
			L12.354,10.939z"/>
	</g>
</g>
</svg>
